<svg width="39" height="39" viewBox="0 0 39 39" fill="none" xmlns="http://www.w3.org/2000/svg">
<path d="M5.5 29.5985L3.75 19.8055L19.5 14.4638L35.25 19.8055L33.5 29.5985M7.25 18.6184V10.9027C7.25 8.93601 8.817 7.34165 10.75 7.34165H28.25C30.183 7.34165 31.75 8.93601 31.75 10.9027V18.6184M16 7.34165V3.78055C16 2.79719 16.7835 2 17.75 2H21.25C22.2165 2 23 2.79719 23 3.78055V7.34165M2 35.8304C3.75 37.611 9 37.611 12.5 34.0499C16 37.611 23 37.611 26.5 34.0499C30 37.611 35.25 37.611 37 35.8304" stroke="#FF8F9C" stroke-width="2.5" stroke-linecap="round" stroke-linejoin="round"/>
</svg>
