<svg width="45" height="41" viewBox="0 0 45 41" fill="none" xmlns="http://www.w3.org/2000/svg">
<path d="M28.7425 0.87286L22.5176 5.23155C22.2697 5.40513 22.2463 5.79962 22.4655 6.11267L22.8888 6.7172C23.1369 7.07139 23.1104 7.51937 22.8298 7.7158C22.5493 7.91224 22.1193 7.7839 21.8713 7.42971L21.448 6.82518C21.2288 6.5122 20.8501 6.39912 20.6022 6.57274L1.92775 19.6487C1.41617 20.0069 1.3679 20.8238 1.82016 21.4696L14.5193 39.6058C14.9715 40.2517 15.7556 40.4857 16.2672 40.1275L34.9417 27.0515C35.1896 26.8779 35.213 26.4834 34.9938 26.1703L34.5705 25.5658C34.3225 25.2116 34.3489 24.7636 34.6295 24.5672C34.91 24.3708 35.34 24.4991 35.5881 24.8533L36.0113 25.4578C36.2305 25.7708 36.6092 25.8839 36.8571 25.7103L43.082 21.3516C43.5936 20.9934 43.6418 20.1765 43.1896 19.5307L30.4905 1.39447C30.0381 0.748663 29.254 0.514646 28.7425 0.87286ZM42.2917 20.1594C42.3063 20.1802 42.3047 20.2065 42.2882 20.2181L36.5122 24.2625L36.4858 24.2247C35.9389 23.4436 35.072 23.0604 34.35 23.2127L33.8349 22.4771C33.6157 22.1641 33.2371 22.051 32.9891 22.2246C32.7412 22.3982 32.7179 22.7927 32.9371 23.1057L33.4521 23.8413C33.0621 24.4678 33.1257 25.4134 33.6726 26.1945L33.6991 26.2322L15.4734 38.994C15.4569 39.0055 15.4317 38.998 15.4171 38.9772L2.71801 20.841C2.7034 20.8201 2.70496 20.7938 2.72147 20.7823L20.9471 8.02055L20.9735 8.05831C21.5204 8.83937 22.3873 9.22257 23.1094 9.07034L23.6244 9.80594C23.8436 10.1189 24.2223 10.232 24.4702 10.0584C24.7181 9.8848 24.7415 9.49031 24.5223 9.17726L24.0072 8.44166C24.3972 7.8152 24.3336 6.86958 23.7867 6.08852L23.7603 6.05076L29.5362 2.00642C29.5527 1.99485 29.5779 2.00237 29.5925 2.02323L42.2917 20.1594Z" fill="#FF8F9C"/>
<path d="M25.3697 11.3429C25.1218 11.5165 25.0984 11.911 25.3176 12.2241L26.1642 13.4331C26.3834 13.7461 26.762 13.8592 27.01 13.6856C27.2579 13.512 27.2813 13.1175 27.0621 12.8044L26.2155 11.5954C25.9963 11.2824 25.6176 11.1694 25.3697 11.3429Z" fill="#FF8F9C"/>
<path d="M27.9095 14.9702C27.6616 15.1438 27.6382 15.5383 27.8574 15.8513L28.704 17.0604C28.9232 17.3733 29.3019 17.4864 29.5498 17.3128C29.7977 17.1392 29.8211 16.7447 29.6019 16.4317L28.7553 15.2226C28.5361 14.9096 28.1574 14.7966 27.9095 14.9702Z" fill="#FF8F9C"/>
<path d="M30.4493 18.5974C30.2014 18.771 30.1781 19.1655 30.3973 19.4786L31.2439 20.6876C31.463 21.0006 31.8417 21.1137 32.0896 20.9401C32.3375 20.7665 32.3609 20.372 32.1417 20.0589L31.2951 18.8499C31.0759 18.5368 30.6972 18.4239 30.4493 18.5974Z" fill="#FF8F9C"/>
<path d="M18.7319 14.4363C18.4015 14.3377 18.1173 14.5368 18.097 14.8808L17.0975 31.7977C17.0772 32.1418 17.3285 32.5007 17.6587 32.5992C17.8239 32.6485 17.9775 32.6233 18.0924 32.5429C18.2072 32.4625 18.2834 32.3268 18.2935 32.1547L19.2931 15.2378C19.3134 14.8938 19.0621 14.5349 18.7319 14.4363Z" fill="#FF8F9C"/>
<path d="M10.6924 18.9173C9.38878 19.8301 9.26583 21.9118 10.4183 23.5576C11.5707 25.2035 13.5689 25.7999 14.8725 24.8871C16.1761 23.9743 16.2991 21.8926 15.1467 20.2467C13.9943 18.6009 11.996 18.0045 10.6924 18.9173ZM14.0789 23.7536C13.2703 24.3198 12.0309 23.9499 11.316 22.929C10.6012 21.9081 10.6775 20.617 11.4861 20.0508C12.2947 19.4846 13.5341 19.8545 14.2489 20.8754C14.9637 21.8962 14.8874 23.1875 14.0789 23.7536Z" fill="#FF8F9C"/>
<path d="M21.5181 22.1484C20.2145 23.0612 20.0915 25.1429 21.2439 26.7887C22.3964 28.4346 24.3946 29.031 25.6982 28.1182C27.0018 27.2054 27.1248 25.1237 25.9724 23.4778C24.82 21.832 22.8217 21.2356 21.5181 22.1484ZM24.9045 26.9847C24.0959 27.5509 22.8565 27.181 22.1417 26.1601C21.4269 25.1392 21.5032 23.848 22.3118 23.2819C23.1204 22.7157 24.3598 23.0856 25.0746 24.1065C25.7894 25.1273 25.7131 26.4185 24.9045 26.9847Z" fill="#FF8F9C"/>
<path d="M28.7425 0.87286L22.5176 5.23155C22.2697 5.40513 22.2463 5.79962 22.4655 6.11267L22.8888 6.7172C23.1369 7.07139 23.1104 7.51937 22.8298 7.7158C22.5493 7.91224 22.1193 7.7839 21.8713 7.42971L21.448 6.82518C21.2288 6.5122 20.8501 6.39912 20.6022 6.57274L1.92775 19.6487C1.41617 20.0069 1.3679 20.8238 1.82016 21.4696L14.5193 39.6058C14.9715 40.2517 15.7556 40.4857 16.2672 40.1275L34.9417 27.0515C35.1896 26.8779 35.213 26.4834 34.9938 26.1703L34.5705 25.5658C34.3225 25.2116 34.3489 24.7636 34.6295 24.5672C34.91 24.3708 35.34 24.4991 35.5881 24.8533L36.0113 25.4578C36.2305 25.7708 36.6092 25.8839 36.8571 25.7103L43.082 21.3516C43.5936 20.9934 43.6418 20.1765 43.1896 19.5307L30.4905 1.39447C30.0381 0.748663 29.254 0.514646 28.7425 0.87286ZM42.2917 20.1594C42.3063 20.1802 42.3047 20.2065 42.2882 20.2181L36.5122 24.2625L36.4858 24.2247C35.9389 23.4436 35.072 23.0604 34.35 23.2127L33.8349 22.4771C33.6157 22.1641 33.2371 22.051 32.9891 22.2246C32.7412 22.3982 32.7179 22.7927 32.9371 23.1057L33.4521 23.8413C33.0621 24.4678 33.1257 25.4134 33.6726 26.1945L33.6991 26.2322L15.4734 38.994C15.4569 39.0055 15.4317 38.998 15.4171 38.9772L2.71801 20.841C2.7034 20.8201 2.70496 20.7938 2.72147 20.7823L20.9471 8.02055L20.9735 8.05831C21.5204 8.83937 22.3873 9.22257 23.1094 9.07034L23.6244 9.80594C23.8436 10.1189 24.2223 10.232 24.4702 10.0584C24.7181 9.8848 24.7415 9.49031 24.5223 9.17726L24.0072 8.44166C24.3972 7.8152 24.3336 6.86958 23.7867 6.08852L23.7603 6.05076L29.5362 2.00642C29.5527 1.99485 29.5779 2.00237 29.5925 2.02323L42.2917 20.1594Z" stroke="#FF8F9C" stroke-width="1.3"/>
<path d="M25.3697 11.3429C25.1218 11.5165 25.0984 11.911 25.3176 12.2241L26.1642 13.4331C26.3834 13.7461 26.762 13.8592 27.01 13.6856C27.2579 13.512 27.2813 13.1175 27.0621 12.8044L26.2155 11.5954C25.9963 11.2824 25.6176 11.1694 25.3697 11.3429Z" stroke="#FF8F9C" stroke-width="1.3"/>
<path d="M27.9095 14.9702C27.6616 15.1438 27.6382 15.5383 27.8574 15.8513L28.704 17.0604C28.9232 17.3733 29.3019 17.4864 29.5498 17.3128C29.7977 17.1392 29.8211 16.7447 29.6019 16.4317L28.7553 15.2226C28.5361 14.9096 28.1574 14.7966 27.9095 14.9702Z" stroke="#FF8F9C" stroke-width="1.3"/>
<path d="M30.4493 18.5974C30.2014 18.771 30.1781 19.1655 30.3973 19.4786L31.2439 20.6876C31.463 21.0006 31.8417 21.1137 32.0896 20.9401C32.3375 20.7665 32.3609 20.372 32.1417 20.0589L31.2951 18.8499C31.0759 18.5368 30.6972 18.4239 30.4493 18.5974Z" stroke="#FF8F9C" stroke-width="1.3"/>
<path d="M18.7319 14.4363C18.4015 14.3377 18.1173 14.5368 18.097 14.8808L17.0975 31.7977C17.0772 32.1418 17.3285 32.5007 17.6587 32.5992C17.8239 32.6485 17.9775 32.6233 18.0924 32.5429C18.2072 32.4625 18.2834 32.3268 18.2935 32.1547L19.2931 15.2378C19.3134 14.8938 19.0621 14.5349 18.7319 14.4363Z" stroke="#FF8F9C" stroke-width="1.3"/>
<path d="M10.6924 18.9173C9.38878 19.8301 9.26583 21.9118 10.4183 23.5576C11.5707 25.2035 13.5689 25.7999 14.8725 24.8871C16.1761 23.9743 16.2991 21.8926 15.1467 20.2467C13.9943 18.6009 11.996 18.0045 10.6924 18.9173ZM14.0789 23.7536C13.2703 24.3198 12.0309 23.9499 11.316 22.929C10.6012 21.9081 10.6775 20.617 11.4861 20.0508C12.2947 19.4846 13.5341 19.8545 14.2489 20.8754C14.9637 21.8962 14.8874 23.1875 14.0789 23.7536Z" stroke="#FF8F9C" stroke-width="1.3"/>
<path d="M21.5181 22.1484C20.2145 23.0612 20.0915 25.1429 21.2439 26.7887C22.3964 28.4346 24.3946 29.031 25.6982 28.1182C27.0018 27.2054 27.1248 25.1237 25.9724 23.4778C24.82 21.832 22.8217 21.2356 21.5181 22.1484ZM24.9045 26.9847C24.0959 27.5509 22.8565 27.181 22.1417 26.1601C21.4269 25.1392 21.5032 23.848 22.3118 23.2819C23.1204 22.7157 24.3598 23.0856 25.0746 24.1065C25.7894 25.1273 25.7131 26.4185 24.9045 26.9847Z" stroke="#FF8F9C" stroke-width="1.3"/>
</svg>
