<svg width="35" height="35" viewBox="0 0 35 35" fill="none" xmlns="http://www.w3.org/2000/svg">
<path d="M34.9429 0.84402C34.9121 0.395841 34.5484 0.0420156 34.0983 0.0219654H34.0959C26.8214 -0.295298 20.3689 2.82309 14.6012 9.45614H3.25761C2.843 9.45614 2.49592 9.73802 2.3976 10.1202L2.39641 10.126L0.0272455 19.5614C0.0106613 19.6251 0.00118464 19.6994 0.00118464 19.7749C0.00118464 20.2632 0.39802 20.6594 0.889623 20.6606H7.17029C6.78175 21.4013 6.39439 22.1455 6.01295 22.9275C5.95728 23.0407 5.92411 23.174 5.92411 23.3143C5.92411 23.5585 6.02361 23.7802 6.18472 23.9418L10.9231 28.6594C11.0842 28.8187 11.3057 28.9177 11.5509 28.9177C11.6978 28.9177 11.8352 28.8824 11.9572 28.821L11.9525 28.8234C12.7122 28.4405 13.4668 28.0516 14.2162 27.6569V34.1154C14.2162 34.1166 14.2162 34.1166 14.2162 34.1178C14.2162 34.6049 14.613 35 15.1023 35C15.1035 35 15.1035 35 15.1046 35C15.1816 35 15.2551 34.9906 15.3262 34.9729L15.319 34.9741L24.7957 32.6152C25.1855 32.515 25.4686 32.1682 25.4686 31.7566V20.4519C31.5135 15.4842 35.5316 9.30753 34.9429 0.846379V0.84402ZM2.02682 18.8915L3.95177 11.2253H13.143C11.4099 13.4532 9.75032 15.9595 8.28499 18.5872L8.1298 18.8915H2.02682ZM23.6917 31.0631L15.9919 32.9797V26.6922C18.9652 25.0728 21.4813 23.4641 23.8789 21.702L23.6917 21.833V31.0631ZM11.7227 26.9516L7.88933 23.135C15.0194 8.76972 23.2735 1.76869 33.0902 1.76869L33.2134 1.76986C33.6019 13.9521 23.2143 21.0958 11.7227 26.9516ZM25.7647 5.91788C23.9653 5.91788 22.5071 7.36975 22.5071 9.16128C22.5071 10.9528 23.9653 12.4047 25.7647 12.4047C27.5641 12.4047 29.0223 10.9528 29.0223 9.16128C29.02 7.37093 27.5629 5.92024 25.7647 5.91788ZM25.7647 10.6356C24.9474 10.6356 24.284 9.97508 24.284 9.16128C24.284 8.34749 24.9474 7.68701 25.7647 7.68701C26.5821 7.68701 27.2454 8.34749 27.2454 9.16128C27.2443 9.97508 26.5821 10.6344 25.7647 10.6356ZM3.82621 27.1498L3.26235 27.1474C2.83708 27.2323 2.567 27.3668 2.43195 27.7029L0.062783 33.6C0.0225071 33.6967 0 33.81 0 33.9279C0 34.4162 0.396836 34.8125 0.888439 34.8137C1.0069 34.8137 1.12062 34.7901 1.22486 34.7488L1.21894 34.7511L7.1466 32.397C7.46288 32.2673 7.68559 31.9713 7.70454 31.621V31.6186C7.72942 31.1421 7.7614 30.7293 7.78864 30.3743C7.88104 29.1878 7.94264 28.4023 7.39773 27.8126C6.79596 27.1628 5.92766 27.158 3.82739 27.1486L3.82621 27.1498ZM6.01651 30.2387C5.99874 30.4581 5.97978 30.6975 5.96202 30.9617L2.4817 32.3439L3.85701 28.9189C4.9184 28.9236 5.90989 28.9283 6.04849 28.9508C6.06152 29.0982 6.06863 29.2692 6.06863 29.4426C6.06863 29.7233 6.04967 29.9993 6.01295 30.2705L6.01651 30.2387Z" fill="#FF8F9C"/>
</svg>
