<svg width="39" height="39" viewBox="0 0 39 39" fill="none" xmlns="http://www.w3.org/2000/svg">
<path d="M2 6.86111C2 23.5063 15.4936 37 32.1389 37C32.8898 37 33.6344 36.9726 34.3717 36.9185C35.2177 36.8565 35.6406 36.8256 36.0258 36.6039C36.3447 36.4204 36.6471 36.0949 36.8069 35.7633C37 35.3632 37 34.8963 37 33.9628V28.4847C37 27.6995 37 27.3069 36.8707 26.9706C36.7568 26.6732 36.5712 26.4086 36.3309 26.1998C36.0589 25.9633 35.6898 25.8292 34.9521 25.5608L28.7167 23.2934C27.8582 22.9813 27.4289 22.8252 27.0217 22.8516C26.6626 22.875 26.317 22.9977 26.0234 23.2057C25.6905 23.4416 25.4556 23.8332 24.9857 24.6166L23.3889 27.2778C18.2363 24.9442 14.0592 20.7617 11.7222 15.6111L14.3834 14.0144C15.1667 13.5444 15.5583 13.3094 15.7943 12.9765C16.0023 12.6829 16.125 12.3374 16.1484 11.9783C16.1748 11.5711 16.0187 11.1419 15.7066 10.2834L13.4391 4.04791C13.1708 3.31009 13.0367 2.94117 12.8003 2.66908C12.5914 2.42873 12.3267 2.24335 12.0295 2.12921C11.693 2 11.3004 2 10.5153 2H5.03724C4.10366 2 3.63685 2 3.23663 2.19299C2.90514 2.35284 2.57972 2.6553 2.39608 2.97422C2.17438 3.3593 2.1434 3.78232 2.08145 4.62836C2.02747 5.36556 2 6.11013 2 6.86111Z" stroke="#FF8F9C" stroke-width="2.5" stroke-linecap="round" stroke-linejoin="round"/>
</svg>
